<mxfile host="app.diagrams.net" modified="2024-02-24T10:25:32.724Z" agent="Mozilla/5.0 (Macintosh; Intel Mac OS X 10_15_7) AppleWebKit/537.36 (KHTML, like Gecko) Chrome/120.0.0.0 YaBrowser/24.1.0.0 Safari/537.36" etag="Bedw6oYe_IAQhoRqxcL9" version="23.1.6" type="device">
  <diagram id="C5RBs43oDa-KdzZeNtuy" name="Page-1">
    <mxGraphModel dx="434" dy="258" grid="1" gridSize="10" guides="1" tooltips="1" connect="1" arrows="1" fold="1" page="1" pageScale="1" pageWidth="827" pageHeight="1169" math="0" shadow="0">
      <root>
        <mxCell id="WIyWlLk6GJQsqaUBKTNV-0" />
        <mxCell id="WIyWlLk6GJQsqaUBKTNV-1" parent="WIyWlLk6GJQsqaUBKTNV-0" />
        <mxCell id="WtU4t3pumsVTrESBMC2i-8" value="" style="edgeStyle=orthogonalEdgeStyle;rounded=0;orthogonalLoop=1;jettySize=auto;html=1;" edge="1" parent="WIyWlLk6GJQsqaUBKTNV-1" source="WtU4t3pumsVTrESBMC2i-1">
          <mxGeometry relative="1" as="geometry">
            <mxPoint x="380.77272727272725" y="120.01201094768345" as="targetPoint" />
          </mxGeometry>
        </mxCell>
        <mxCell id="WtU4t3pumsVTrESBMC2i-1" value="&lt;p data-pm-slice=&quot;1 1 [&amp;quot;orderedList&amp;quot;,{&amp;quot;start&amp;quot;:1},&amp;quot;listItem&amp;quot;,{}]&quot;&gt;Инициализация&amp;nbsp; исходного массива&lt;br&gt;&lt;/p&gt;" style="rounded=0;whiteSpace=wrap;html=1;" vertex="1" parent="WIyWlLk6GJQsqaUBKTNV-1">
          <mxGeometry x="306.12" y="50" width="150.75" height="40" as="geometry" />
        </mxCell>
        <mxCell id="WtU4t3pumsVTrESBMC2i-5" value="" style="edgeStyle=orthogonalEdgeStyle;rounded=0;orthogonalLoop=1;jettySize=auto;html=1;" edge="1" parent="WIyWlLk6GJQsqaUBKTNV-1" source="WtU4t3pumsVTrESBMC2i-2" target="WtU4t3pumsVTrESBMC2i-1">
          <mxGeometry relative="1" as="geometry" />
        </mxCell>
        <mxCell id="WtU4t3pumsVTrESBMC2i-2" value="Start" style="ellipse;whiteSpace=wrap;html=1;" vertex="1" parent="WIyWlLk6GJQsqaUBKTNV-1">
          <mxGeometry x="350" width="63" height="30" as="geometry" />
        </mxCell>
        <mxCell id="WtU4t3pumsVTrESBMC2i-12" value="" style="edgeStyle=orthogonalEdgeStyle;rounded=0;orthogonalLoop=1;jettySize=auto;html=1;" edge="1" parent="WIyWlLk6GJQsqaUBKTNV-1" source="WtU4t3pumsVTrESBMC2i-10" target="WtU4t3pumsVTrESBMC2i-11">
          <mxGeometry relative="1" as="geometry" />
        </mxCell>
        <mxCell id="WtU4t3pumsVTrESBMC2i-15" value="" style="edgeStyle=orthogonalEdgeStyle;rounded=0;orthogonalLoop=1;jettySize=auto;html=1;" edge="1" parent="WIyWlLk6GJQsqaUBKTNV-1" source="WtU4t3pumsVTrESBMC2i-10" target="WtU4t3pumsVTrESBMC2i-14">
          <mxGeometry relative="1" as="geometry" />
        </mxCell>
        <mxCell id="WtU4t3pumsVTrESBMC2i-10" value="&lt;font style=&quot;font-size: 8px;&quot;&gt;Поверка массива на пустоту&lt;/font&gt;" style="rhombus;whiteSpace=wrap;html=1;" vertex="1" parent="WIyWlLk6GJQsqaUBKTNV-1">
          <mxGeometry x="306.12" y="120" width="150" height="50" as="geometry" />
        </mxCell>
        <mxCell id="WtU4t3pumsVTrESBMC2i-11" value="Finish" style="ellipse;whiteSpace=wrap;html=1;" vertex="1" parent="WIyWlLk6GJQsqaUBKTNV-1">
          <mxGeometry x="510" y="125" width="120" height="40" as="geometry" />
        </mxCell>
        <mxCell id="WtU4t3pumsVTrESBMC2i-13" value="yes" style="text;html=1;align=center;verticalAlign=middle;resizable=0;points=[];autosize=1;strokeColor=none;fillColor=none;" vertex="1" parent="WIyWlLk6GJQsqaUBKTNV-1">
          <mxGeometry x="456.87" y="120" width="40" height="30" as="geometry" />
        </mxCell>
        <mxCell id="WtU4t3pumsVTrESBMC2i-21" value="" style="edgeStyle=orthogonalEdgeStyle;rounded=0;orthogonalLoop=1;jettySize=auto;html=1;" edge="1" parent="WIyWlLk6GJQsqaUBKTNV-1" source="WtU4t3pumsVTrESBMC2i-14" target="WtU4t3pumsVTrESBMC2i-17">
          <mxGeometry relative="1" as="geometry" />
        </mxCell>
        <mxCell id="WtU4t3pumsVTrESBMC2i-14" value="&lt;font style=&quot;font-size: 8px;&quot;&gt;Создание нового&amp;nbsp; массива с&amp;nbsp; уменьшенными строками &lt;/font&gt;" style="shape=parallelogram;perimeter=parallelogramPerimeter;whiteSpace=wrap;html=1;fixedSize=1;" vertex="1" parent="WIyWlLk6GJQsqaUBKTNV-1">
          <mxGeometry x="309.09" y="200" width="144.06" height="40" as="geometry" />
        </mxCell>
        <mxCell id="WtU4t3pumsVTrESBMC2i-16" value="no" style="text;html=1;align=center;verticalAlign=middle;resizable=0;points=[];autosize=1;strokeColor=none;fillColor=none;" vertex="1" parent="WIyWlLk6GJQsqaUBKTNV-1">
          <mxGeometry x="380" y="168" width="40" height="30" as="geometry" />
        </mxCell>
        <mxCell id="WtU4t3pumsVTrESBMC2i-19" value="" style="edgeStyle=orthogonalEdgeStyle;rounded=0;orthogonalLoop=1;jettySize=auto;html=1;" edge="1" parent="WIyWlLk6GJQsqaUBKTNV-1" source="WtU4t3pumsVTrESBMC2i-17" target="WtU4t3pumsVTrESBMC2i-18">
          <mxGeometry relative="1" as="geometry" />
        </mxCell>
        <mxCell id="WtU4t3pumsVTrESBMC2i-17" value="&lt;font style=&quot;font-size: 7px;&quot;&gt; Заполнение нового массива строками&amp;nbsp; из исходного, длина которых меньше или равна 3 символам  &lt;/font&gt;" style="shape=hexagon;perimeter=hexagonPerimeter2;whiteSpace=wrap;html=1;fixedSize=1;" vertex="1" parent="WIyWlLk6GJQsqaUBKTNV-1">
          <mxGeometry x="321" y="270" width="120" height="80" as="geometry" />
        </mxCell>
        <mxCell id="WtU4t3pumsVTrESBMC2i-20" value="" style="edgeStyle=orthogonalEdgeStyle;rounded=0;orthogonalLoop=1;jettySize=auto;html=1;" edge="1" parent="WIyWlLk6GJQsqaUBKTNV-1" source="WtU4t3pumsVTrESBMC2i-18" target="WtU4t3pumsVTrESBMC2i-11">
          <mxGeometry relative="1" as="geometry" />
        </mxCell>
        <mxCell id="WtU4t3pumsVTrESBMC2i-18" value="&lt;font style=&quot;font-size: 8px;&quot;&gt;Вывод нового массива&lt;/font&gt;" style="rounded=0;whiteSpace=wrap;html=1;" vertex="1" parent="WIyWlLk6GJQsqaUBKTNV-1">
          <mxGeometry x="510" y="280" width="120" height="60" as="geometry" />
        </mxCell>
      </root>
    </mxGraphModel>
  </diagram>
</mxfile>
